# xmcd
#
# Track frame offsets:
#	150
#	13292
#	26705
#	40140
#	52462
#	63360
#	73557
#	86810
#	96060
#	110755
#	121755
#	133037
#	147910
#	160030
#	171782
#	181940
#	193025
#	205470
#	218327
#	228667
#	238930
#	250025
#	260300
#	270650
#	282830
#	295937
#	308452
#	317897
#	327355
#
# Disc length: 4561 seconds
#
# Revision: 0
# Processed by: cddbd v1.5.1PL2 Copyright (c) Steve Scherf et al.
# Submitted via: audiograbber 1.83.01
#
DISCID=b411cf1d
DTITLE=Virginia Lee - How Great Thou Art
DYEAR=1995
DGENRE=Vocal
TTITLE0=Fall Softly Snow
TTITLE1=Why Me
TTITLE2=Telephone to Glory
TTITLE3=What A Friend We Have In Jesus
TTITLE4=Beyond the Sunset
TTITLE5=Across the Bridge
TTITLE6=How Great Thou Art
TTITLE7=I Believe
TTITLE8=Sunrise
TTITLE9=Sweet Hour of Prayer
TTITLE10=He is my Everything
TTITLE11=Let Me Be Worthy
TTITLE12=In The Garden
TTITLE13=Softly and Tenderly
TTITLE14=Invisible Hands
TTITLE15=Where No One Stands Alone
TTITLE16=The Old Rugged Cross
TTITLE17=Nearer My God To Thee
TTITLE18=Tel Me Why
TTITLE19=Take My Hand
TTITLE20=Amazing Grace
TTITLE21=May The Good Lord Bless And Keep You
TTITLE22=Each Step Of The Way
TTITLE23=Royal Telephone
TTITLE24=My Special Prayer
TTITLE25=White Christmas
TTITLE26=Come All Ye Faithfull
TTITLE27=Silent Night
TTITLE28=Christmas Medley
EXTD=
EXTT0=
EXTT1=
EXTT2=
EXTT3=
EXTT4=
EXTT5=
EXTT6=
EXTT7=
EXTT8=
EXTT9=
EXTT10=
EXTT11=
EXTT12=
EXTT13=
EXTT14=
EXTT15=
EXTT16=
EXTT17=
EXTT18=
EXTT19=
EXTT20=
EXTT21=
EXTT22=
EXTT23=
EXTT24=
EXTT25=
EXTT26=
EXTT27=
EXTT28=
PLAYORDER=
